Coordinates
version=1
nRows=14
nColumns=40
inDegrees=yes

Units are S.I. units (second, meters, Newtons, ...)
Angles are in degrees.

endheader
time	pelvis_tilt	pelvis_list	pelvis_rotation	pelvis_tx	pelvis_ty	pelvis_tz	hip_flexion_r	hip_adduction_r	hip_rotation_r	knee_angle_r	knee_angle_r_beta	ankle_angle_r	subtalar_angle_r	mtp_angle_r	hip_flexion_l	hip_adduction_l	hip_rotation_l	knee_angle_l	knee_angle_l_beta	ankle_angle_l	subtalar_angle_l	mtp_angle_l	lumbar_extension	lumbar_bending	lumbar_rotation	arm_flex_r	arm_add_r	arm_rot_r	elbow_flex_r	pro_sup_r	wrist_flex_r	wrist_dev_r	arm_flex_l	arm_add_l	arm_rot_l	elbow_flex_l	pro_sup_l	wrist_flex_l	wrist_dev_l
     51.79342857	     -2.82083366	     -3.46246894	      5.68588976	      1.08222294	      0.93642348	      0.50851783	      7.62521932	      2.15511324	    -17.25594622	     10.79162729	     10.79162729	      7.99837505	      4.33627950	     -8.88376367	     33.26178256	    -11.42869742	      0.84709108	     37.57340828	     37.57340828	      6.99752094	    -14.37401558	      6.51843784	     -9.93064761	      5.81990517	      4.06508064	     34.22936791	    -20.83424361	     -1.90294120	     67.99114742	     44.97815755	      0.00000000	      0.00000000	     -4.18454147	     -5.80327346	      1.23144456	     25.72398754	     44.86826118	      0.00000000	      0.00000000
     51.80685714	     -3.00841996	     -3.55297761	      6.02473847	      1.08067849	      0.93610914	      0.50847125	      7.35125666	      2.31978055	    -17.48247332	     10.40041507	     10.40041507	      8.11743709	      4.36291011	     -8.92809735	     33.18982103	    -11.15782526	      0.48373907	     33.33800582	     33.33800582	      6.93634106	    -12.98264481	      7.06729834	     -9.83270142	      5.91125010	      4.10248248	     35.99271410	    -20.88935327	     -2.15692149	     69.13433914	     44.96060322	      0.00000000	      0.00000000	     -5.01434292	     -5.60479773	      1.43769987	     25.32930289	     44.82539127	      0.00000000	      0.00000000
     51.82028571	     -3.16441265	     -3.69322133	      6.37309423	      1.07922841	      0.93573507	      0.50825614	      7.00893337	      2.53476248	    -17.77924627	      9.95218625	      9.95218625	      8.24431746	      4.50992650	     -9.00391633	     33.00401924	    -10.89421482	      0.11877472	     29.15079167	     29.15079167	      6.83890815	    -11.24406300	      7.54539946	     -9.74847545	      6.06201162	      4.10365502	     37.68186784	    -20.86570043	     -2.37113473	     70.43489743	     44.93570019	      0.00000000	      0.00000000	     -5.79271076	     -5.38448189	      1.63303009	     25.00556786	     44.78376955	      0.00000000	      0.00000000
     51.83371429	     -3.23066130	     -3.86658133	      6.71524751	      1.07795691	      0.93537903	      0.50791643	      6.53598788	      2.79185446	    -18.12373208	      9.45292919	      9.45292919	      8.36992099	      4.79386944	     -9.10959399	     32.67367901	    -10.67691522	     -0.38506372	     25.14307183	     25.14307183	      6.63736336	     -9.21020787	      7.94938769	     -9.76715085	      6.29755247	      4.05480659	     39.21591319	    -20.77006123	     -2.56823954	     71.88274334	     44.90548291	      0.00000000	      0.00000000	     -6.58165616	     -5.22739995	      1.85053222	     24.72227279	     44.73829965	      0.00000000	      0.00000000
     51.84714286	     -3.29520403	     -4.09888332	      7.03379207	      1.07681876	      0.93491240	      0.50754977	      6.07048343	      3.11409085	    -18.49498375	      8.96712872	      8.96712872	      8.49414218	      5.11976829	     -9.23410492	     32.33700141	    -10.51734267	     -0.97146547	     21.45242838	     21.45242838	      6.39485928	     -7.02418652	      8.33124917	     -9.74666244	      6.55027464	      4.04765741	     40.63749206	    -20.72557446	     -2.77456813	     73.27887194	     44.87740841	      0.00000000	      0.00000000	     -7.28879766	     -5.07474602	      2.07285510	     24.53061444	     44.69294614	      0.00000000	      0.00000000
     51.86057143	     -3.36065307	     -4.35866489	      7.32891001	      1.07583105	      0.93434141	      0.50707872	      5.63226342	      3.45711879	    -18.81978183	      8.53847731	      8.53847731	      8.64702305	      5.41420041	     -9.35822698	     32.04703287	    -10.37475742	     -1.59404478	     18.26993566	     18.26993566	      6.15787537	     -4.93465608	      8.72422016	     -9.68795818	      6.81696296	      4.09226495	     41.93306295	    -20.69007390	     -2.96758293	     74.48412376	     44.85426492	      0.00000000	      0.00000000	     -7.88886566	     -4.93324213	      2.26645133	     24.40388597	     44.65330148	      0.00000000	      0.00000000
     51.87400000	     -3.27422310	     -4.65069776	      7.62482278	      1.07513732	      0.93390869	      0.50650160	      4.89434983	      3.88155926	    -19.30936919	      7.86823963	      7.86823963	      8.74607136	      6.10951990	     -9.52671745	     31.73136588	    -10.36015259	     -2.63188708	     15.83719223	     15.83719223	      5.97533846	     -2.51273242	      8.72230413	     -9.79960260	      7.15125752	      4.13423995	     42.97086054	    -20.63764406	     -3.32760505	     76.27371624	     44.82720253	      0.00000000	      0.00000000	     -8.55625796	     -4.91810336	      2.80256017	     24.54340606	     44.56301395	      0.00000000	      0.00000000
     51.88742857	     -3.31371247	     -4.85244196	      7.87514861	      1.07445282	      0.93331554	      0.50582544	      4.49422458	      4.14080586	    -19.49302190	      7.62577324	      7.62577324	      8.99412074	      6.20187922	     -9.61795239	     31.48646711	    -10.15348700	     -3.32267873	     13.85790656	     13.85790656	      5.71553477	     -1.18167294	      9.05079362	     -9.69410682	      7.33187211	      4.20046313	     43.98802345	    -20.63224702	     -3.51206296	     77.06346217	     44.81751592	      0.00000000	      0.00000000	     -9.00975696	     -4.87928043	      3.00344571	     24.49286181	     44.52686476	      0.00000000	      0.00000000
     51.90085714	     -3.30012308	     -5.08189686	      8.12575901	      1.07394418	      0.93274011	      0.50503007	      4.00025822	      4.44561660	    -19.70890904	      7.31625054	      7.31625054	      9.25246142	      6.39020034	     -9.69032707	     31.31508571	    -10.01264591	     -4.00220145	     12.68814527	     12.68814527	      5.53166021	     -0.22649622	      9.16439042	     -9.63229195	      7.56111229	      4.21272386	     44.94651852	    -20.54789259	     -3.69412560	     77.84773424	     44.80694660	      0.00000000	      0.00000000	     -9.40783551	     -4.85682540	      3.17801562	     24.46645179	     44.49512519	      0.00000000	      0.00000000
     51.91428571	     -3.31742836	     -5.27690551	      8.35218310	      1.07364780	      0.93200931	      0.50414476	      3.64660596	      4.66450839	    -19.85110626	      7.27068873	      7.27068873	      9.62040300	      6.32296446	     -9.79501233	     31.39910185	     -9.85098490	     -4.40627501	     12.55091668	     12.55091668	      5.44142667	     -0.30547187	      9.20850607	     -9.38035555	      7.62698878	      4.31402351	     45.28635956	    -20.59527508	     -3.75406432	     78.00962051	     44.80561099	      0.00000000	      0.00000000	     -9.59781472	     -4.89343807	      3.18507580	     24.41423259	     44.49115257	      0.00000000	      0.00000000
     51.92771429	     -3.12739270	     -5.45696775	      8.54943974	      1.07365277	      0.93174068	      0.50320368	      2.77795450	      4.98077608	    -20.10920833	      6.67557820	      6.67557820	      9.79255679	      6.97202447	     -9.67974829	     30.90966605	     -9.83028175	     -5.37565795	     12.33905875	     12.33905875	      5.05729634	      0.42645882	      8.34150197	     -9.57813772	      7.81858489	      4.00675815	     46.18601738	    -20.16198867	     -4.15542214	     79.53001846	     44.78467168	      0.00000000	      0.00000000	    -10.19609526	     -4.99603825	      3.53383016	     24.70194911	     44.43095411	      0.00000000	      0.00000000
     51.94114286	     -3.17205219	     -5.62080367	      8.71553984	      1.07376905	      0.93108490	      0.50214731	      2.45266365	      5.14853599	    -20.21092260	      6.68083369	      6.68083369	     10.14039253	      6.89731447	     -9.77698431	     30.62129378	     -9.72521465	     -5.77895093	     12.55797647	     12.55797647	      4.81845665	      0.14773424	      8.37889862	     -9.23898788	      7.89482993	      4.05432752	     46.37818613	    -20.20112985	     -4.20232458	     79.62827407	     44.78435572	      0.00000000	      0.00000000	    -10.26096234	     -5.04492302	      3.53776888	     24.70256299	     44.42968319	      0.00000000	      0.00000000
     51.95457143	     -2.88323875	     -5.84563181	      8.82269086	      1.07424019	      0.93042099	      0.50092980	      1.75622149	      5.40563847	    -20.33162851	      6.72406737	      6.72406737	     10.78847715	      7.30118586	     -9.33295368	     30.20642439	     -9.74958396	     -5.57486785	     13.54929171	     13.54929171	      3.27917181	     -1.67192306	      4.61725658	     -9.48163354	      8.07187110	      4.35599601	     46.42929485	    -20.26306686	     -5.21646132	     81.30067345	     44.80990181	      0.00000000	      0.00000000	    -10.75223327	     -5.42697128	      4.72308853	     26.12257904	     44.28029263	      0.00000000	      0.00000000
     51.96800000	     -2.74128957	     -5.98114797	      8.88784955	      1.07481363	      0.92974088	      0.49970145	      1.23692256	      5.54456380	    -20.28603687	      6.82041264	      6.82041264	     11.22592436	      7.28278751	     -9.42570177	     29.78864934	     -9.75282562	     -5.62856332	     14.68813717	     14.68813717	      2.99348048	     -2.65737225	      4.45840222	     -9.42214302	      8.10550498	      4.32617168	     46.55563586	    -20.20158345	     -5.25987939	     81.46870169	     44.81076454	      0.00000000	      0.00000000	    -10.79761536	     -5.57202040	      4.81664271	     26.11749685	     44.27277914	      0.00000000	      0.00000000
